<?xml version="1.0" encoding="UTF-8" standalone="no"?>
<!-- Created with Inkscape (http://www.inkscape.org/) -->

<svg
   width="210mm"
   height="297mm"
   viewBox="0 0 210 297"
   version="1.1"
   id="svg8"
   sodipodi:docname="Monkey Logo.svg"
   inkscape:version="1.1.2 (b8e25be833, 2022-02-05)"
   xmlns:inkscape="http://www.inkscape.org/namespaces/inkscape"
   xmlns:sodipodi="http://sodipodi.sourceforge.net/DTD/sodipodi-0.dtd"
   xmlns="http://www.w3.org/2000/svg"
   xmlns:svg="http://www.w3.org/2000/svg"
   xmlns:rdf="http://www.w3.org/1999/02/22-rdf-syntax-ns#"
   xmlns:cc="http://creativecommons.org/ns#"
   xmlns:dc="http://purl.org/dc/elements/1.1/">
  <defs
     id="defs2" />
  <sodipodi:namedview
     id="base"
     pagecolor="#ffffff"
     bordercolor="#666666"
     borderopacity="1.0"
     inkscape:pageopacity="0.0"
     inkscape:pageshadow="2"
     inkscape:zoom="0.35"
     inkscape:cx="401.42857"
     inkscape:cy="560"
     inkscape:document-units="mm"
     inkscape:current-layer="layer1"
     inkscape:pagecheckerboard="0"
     showgrid="false"
     inkscape:snap-global="false" />
  <metadata
     id="metadata5">
    <rdf:RDF>
      <cc:Work
         rdf:about="">
        <dc:format>image/svg+xml</dc:format>
        <dc:type
           rdf:resource="http://purl.org/dc/dcmitype/StillImage" />
      </cc:Work>
    </rdf:RDF>
  </metadata>
  <g
     inkscape:label="Layer 1"
     inkscape:groupmode="layer"
     id="layer1">
    <path
       style="color:#000000;fill:#7e4622;stroke-linecap:round;-inkscape-stroke:none"
       d="m 262.97461,70.337891 a 8.7825003,8.7825003 0 0 0 -6.71289,0.355468 c -13.5683,6.480382 -22.38897,13.437992 -27.36914,21.738282 -4.98018,8.300289 -5.14541,17.607329 -3.00196,25.228519 4.28692,15.24238 15.1247,27.376 17.48047,34.70507 2.18301,6.79158 0.8665,10.93323 -2.86523,15.80664 -3.73173,4.87342 -10.50634,9.649 -18.0293,13.38868 -15.04592,7.47934 -32.14062,10.90234 -32.14062,10.90234 a 8.7825003,8.7825003 0 0 0 -6.94532,10.29688 8.7825003,8.7825003 0 0 0 10.29688,6.94531 c 0,0 18.78377,-3.55586 36.60742,-12.41602 8.91183,-4.43008 17.82096,-10.16341 24.1582,-18.43945 6.33725,-8.27604 9.4766,-19.92525 5.64063,-31.85938 -4.4478,-13.83757 -14.77828,-25.13786 -17.29492,-34.08593 -1.25832,-4.47404 -1.23411,-7.45163 1.15625,-11.43555 2.39035,-3.983924 8.12087,-9.308984 19.87695,-14.923828 a 8.7825003,8.7825003 0 0 0 4.14063,-11.710938 8.7825003,8.7825003 0 0 0 -4.99805,-4.496093 z"
       id="path14165" />
    <g
       id="g5549"
       transform="translate(3.0238123)">
      <g
         id="g5535">
        <circle
           style="fill:#7e4622;fill-opacity:1;stroke:none;stroke-width:0.767513;stroke-miterlimit:4;stroke-dasharray:none;stop-color:#000000"
           id="circle2134"
           cx="21.922615"
           cy="83.910713"
           r="40.821423" />
        <circle
           style="fill:#502d16;fill-opacity:1;stroke:none;stroke-width:0.525889;stroke-miterlimit:4;stroke-dasharray:none;stop-color:#000000"
           id="circle2136"
           cx="21.922615"
           cy="83.910713"
           r="27.970232" />
      </g>
      <g
         id="g5541"
         transform="translate(144.3869)">
        <circle
           style="fill:#7e4622;fill-opacity:1;stroke:none;stroke-width:0.767513;stroke-miterlimit:4;stroke-dasharray:none;stop-color:#000000"
           id="circle5537"
           cx="21.922615"
           cy="83.910713"
           r="40.821423" />
        <circle
           style="fill:#502d16;fill-opacity:1;stroke:none;stroke-width:0.525889;stroke-miterlimit:4;stroke-dasharray:none;stop-color:#000000"
           id="circle5539"
           cx="21.922615"
           cy="83.910713"
           r="27.970232" />
      </g>
    </g>
    <path
       id="path1077"
       style="fill:#502d16;stroke-width:1.34909;stop-color:#000000"
       d="m 211.9129,220.36012 c 0,59.49389 -51.38564,78.99702 -114.773023,78.99702 -63.387392,0 -114.773026,-19.50313 -114.773026,-78.99702 0,-59.49389 51.385634,-107.72321 114.773026,-107.72321 63.387383,0 114.773023,48.22932 114.773023,107.72321 z"
       sodipodi:nodetypes="sssss" />
    <circle
       style="fill:#7e4622;fill-opacity:1;stroke:none;stroke-width:1.4;stroke-miterlimit:4;stroke-dasharray:none;stop-color:#000000"
       id="path1165"
       cx="97.139877"
       cy="74.461304"
       r="74.461304" />
    <circle
       style="fill:#da9f77;fill-opacity:1;stroke:none;stroke-width:0.916751;stroke-miterlimit:4;stroke-dasharray:none;stop-color:#000000"
       id="circle1511"
       cx="97.139877"
       cy="118.30654"
       r="48.758923" />
    <g
       id="g1941"
       transform="translate(0.37796402,6.8035714)">
      <circle
         style="fill:#cb7a43;fill-opacity:1;stroke:none;stroke-width:1.4;stroke-miterlimit:4;stroke-dasharray:none;stop-color:#000000"
         id="path1661"
         cx="82.020844"
         cy="100.91964"
         r="4.9136906" />
      <circle
         style="fill:#cb7a43;fill-opacity:1;stroke:none;stroke-width:1.4;stroke-miterlimit:4;stroke-dasharray:none;stop-color:#000000"
         id="circle1937"
         cx="111.50298"
         cy="100.91964"
         r="4.9136906" />
    </g>
    <circle
       style="fill:#000000;fill-opacity:1;stroke:none;stroke-width:1.4;stroke-miterlimit:4;stroke-dasharray:none;stop-color:#000000"
       id="path1965"
       cx="97.139877"
       cy="139.09525"
       r="8.3154764" />
    <g
       id="g2132"
       transform="translate(0.7559525)">
      <g
         id="g2114">
        <circle
           style="fill:#da9f77;fill-opacity:1;stroke:none;stroke-width:0.68934;stroke-miterlimit:4;stroke-dasharray:none;stop-color:#000000"
           id="circle2069"
           cx="65.389877"
           cy="60.098209"
           r="36.663685" />
        <circle
           style="fill:#ffffff;fill-opacity:1;stroke:none;stroke-width:0.461929;stroke-miterlimit:4;stroke-dasharray:none;stop-color:#000000"
           id="circle2071"
           cx="65.389877"
           cy="60.098209"
           r="24.568447" />
        <circle
           style="fill:#000000;fill-opacity:1;stroke:none;stroke-width:0.135025;stroke-miterlimit:4;stroke-dasharray:none;stop-color:#000000"
           id="circle2091"
           cx="65.389877"
           cy="60.098209"
           r="7.1815424" />
      </g>
      <g
         id="g2122"
         transform="translate(61.988095)">
        <circle
           style="fill:#da9f77;fill-opacity:1;stroke:none;stroke-width:0.68934;stroke-miterlimit:4;stroke-dasharray:none;stop-color:#000000"
           id="circle2116"
           cx="65.389877"
           cy="60.098209"
           r="36.663685" />
        <circle
           style="fill:#ffffff;fill-opacity:1;stroke:none;stroke-width:0.461929;stroke-miterlimit:4;stroke-dasharray:none;stop-color:#000000"
           id="circle2118"
           cx="65.389877"
           cy="60.098209"
           r="24.568447" />
        <circle
           style="fill:#000000;fill-opacity:1;stroke:none;stroke-width:0.135025;stroke-miterlimit:4;stroke-dasharray:none;stop-color:#000000"
           id="circle2120"
           cx="65.389877"
           cy="60.098209"
           r="7.1815424" />
      </g>
    </g>
    <g
       id="g8912"
       transform="translate(-1.133928,3.0238095)">
      <g
         id="g8898"
         transform="translate(151.94643,15.875)">
        <rect
           style="fill:#502d16;fill-opacity:1;stroke:none;stroke-width:1.4;stroke-miterlimit:4;stroke-dasharray:none;stop-color:#000000"
           id="rect5573"
           width="65.76786"
           height="117.92859"
           x="-326.07861"
           y="-25.021063"
           ry="32.88393"
           transform="rotate(-45)" />
        <rect
           style="fill:#da9f77;fill-opacity:1;stroke:none;stroke-width:0.926016;stroke-miterlimit:4;stroke-dasharray:none;stop-color:#000000"
           id="rect5655"
           width="43.501488"
           height="78.00267"
           x="-314.94543"
           y="-5.0581055"
           ry="21.750744"
           transform="rotate(-45)" />
      </g>
      <g
         id="g8904"
         transform="matrix(-1,0,0,1,44.601177,15.875)">
        <rect
           style="fill:#502d16;fill-opacity:1;stroke:none;stroke-width:1.4;stroke-miterlimit:4;stroke-dasharray:none;stop-color:#000000"
           id="rect8900"
           width="65.76786"
           height="117.92859"
           x="-326.07861"
           y="-25.021063"
           ry="32.88393"
           transform="rotate(-45)" />
        <rect
           style="fill:#da9f77;fill-opacity:1;stroke:none;stroke-width:0.926016;stroke-miterlimit:4;stroke-dasharray:none;stop-color:#000000"
           id="rect8902"
           width="43.501488"
           height="78.00267"
           x="-314.94543"
           y="-5.0581055"
           ry="21.750744"
           transform="rotate(-45)" />
      </g>
    </g>
    <g
       id="g14130"
       transform="translate(2.2678526,2.9745118)">
      <g
         id="g14116"
         transform="translate(-4.5357143)">
        <circle
           style="fill:#da9f77;fill-opacity:1;stroke:none;stroke-width:1.4;stroke-miterlimit:4;stroke-dasharray:none;stop-color:#000000"
           id="path12041"
           cx="67.657738"
           cy="271.76486"
           r="26.836309" />
        <rect
           style="fill:#7e4622;fill-opacity:1;stroke:none;stroke-width:1.4;stroke-miterlimit:4;stroke-dasharray:none;stop-color:#000000"
           id="rect8936"
           width="51.404762"
           height="121.70833"
           x="22.678572"
           y="176.89285"
           ry="25.702381" />
      </g>
      <g
         id="g14122"
         transform="matrix(-1,0,0,1,194.27976,0)">
        <circle
           style="fill:#da9f77;fill-opacity:1;stroke:none;stroke-width:1.4;stroke-miterlimit:4;stroke-dasharray:none;stop-color:#000000"
           id="circle14118"
           cx="67.657738"
           cy="271.76486"
           r="26.836309" />
        <rect
           style="fill:#7e4622;fill-opacity:1;stroke:none;stroke-width:1.4;stroke-miterlimit:4;stroke-dasharray:none;stop-color:#000000"
           id="rect14120"
           width="51.404762"
           height="121.70833"
           x="22.678572"
           y="176.89285"
           ry="25.702381" />
      </g>
    </g>
    <g
       aria-label="I LOVE MONKEYS"
       id="text20169"
       style="font-weight:bold;font-size:43.2424px;line-height:1.25;font-family:Cambria;-inkscape-font-specification:'Cambria Bold';stroke-width:1.62159">
      <path
         d="m -29.246057,29.229872 q 0.701836,0.231424 1.316633,0.389682 0.614797,0.158259 1.035466,0.163574 0.420669,0.0053 0.754084,-0.129304 0.340027,-0.154672 0.672793,-0.4896 0.312714,-0.341539 0.644833,-0.876775 l 1.32346,0.436399 -3.471356,10.527529 -1.323461,-0.436399 q 0.04412,-0.808061 -0.0376,-1.301896 -0.09516,-0.520499 -0.43009,-0.853265 -0.348368,-0.359431 -0.950157,-0.624564 -0.621842,-0.271745 -1.584359,-0.589126 l -17.305252,-5.706248 q -0.962517,-0.317381 -1.603979,-0.462199 -0.63485,-0.164871 -1.108632,-0.07654 -0.487222,0.06167 -0.873317,0.423478 -0.379484,0.341756 -0.831268,1.037628 l -1.323461,-0.436399 3.471356,-10.527529 1.323461,0.436399 q -0.05052,0.894883 0.07792,1.381889 0.114999,0.460342 0.409822,0.779884 0.294823,0.319542 0.849895,0.591503 0.555072,0.271961 1.678008,0.642239 z"
         id="path21407" />
      <path
         d="m -37.242049,-8.1665785 1.194451,0.7178305 q -0.210567,0.7602806 -0.221795,1.2708477 -0.02933,0.4996909 0.202115,0.9343881 0.242316,0.4165994 0.777939,0.8370294 0.528401,0.3914559 1.397092,0.9135144 l 18.025344,10.832714 2.109987,-3.5109606 q 0.630821,-1.0496687 0.685729,-1.8788614 0.05491,-0.8291926 -0.342802,-1.6840561 -0.404933,-0.88383743 -1.295025,-1.8621698 -0.897313,-1.0073063 -1.736855,-1.782821 l 1.490042,-2.4793897 7.0722082,4.7921426 -10.3650362,17.2471414 -1.194451,-0.71783 q 0.221443,-0.778379 0.232671,-1.288946 0.0221,-0.528665 -0.231089,-0.927166 -0.260414,-0.427476 -0.788815,-0.818932 -0.546499,-0.402332 -1.41519,-0.924391 l -15.58215,-9.364424 q -0.850594,-0.5111823 -1.46235,-0.8049281 -0.60088,-0.3118435 -1.082473,-0.3302928 -0.470717,-0.036547 -0.927166,0.2310885 -0.463672,0.2386616 -1.057945,0.8176134 l -1.194451,-0.7178305 z"
         id="path21409" />
      <path
         d="m 2.6387234,-12.727429 q -4.2072456,4.5644267 -8.9955239,4.4007838 -4.7739675,-0.1791681 -10.0991325,-5.0876208 -3.493185,-3.219831 -4.945666,-6.597472 -1.453696,-3.407476 -0.753153,-6.753248 0.700543,-3.345771 3.448132,-6.326621 4.278798,-4.642054 9.0956965,-4.509461 4.8013738,0.118282 10.04891253,4.955183 2.93427467,2.704658 4.40174417,5.349503 1.4662547,2.61501 1.6435031,5.133083 0.1772484,2.518073 -0.8319071,4.890203 -0.9948452,2.356604 -3.0126058,4.545667 z M -12.324421,-18.73768 q 4.6886289,4.321729 8.0167136,5.321843 3.32686982,0.970279 5.4591133,-1.342986 1.1018977,-1.195445 1.2381213,-2.620534 0.1206983,-1.439399 -0.5559292,-3.010699 -0.6778425,-1.601136 -2.06107429,-3.278146 -1.36892141,-1.692536 -3.26300341,-3.4384 -3.0895273,-2.847761 -5.627844,-4.268541 -2.5395313,-1.450615 -4.5111123,-1.430103 -1.972796,-0.0093 -3.389521,1.527678 -2.075002,2.251163 -0.933026,5.342597 1.140761,3.061598 5.627562,7.197291 z"
         id="path21411" />
      <path
         d="m 16.207605,-52.920224 q -0.246058,-0.908951 -0.553229,-1.646858 -0.289832,-0.749957 -0.783908,-1.460811 -0.590482,-0.849556 -1.354583,-0.987025 -0.746764,-0.149519 -1.713874,0.419813 l -0.795342,-1.1443 7.472629,-5.193824 0.795342,1.1443 q -0.586536,0.561952 -0.825697,1.216739 -0.233873,0.625398 -0.193535,1.497338 0.04563,0.842552 0.482777,2.544376 l 6.183934,24.398298 -4.005052,2.783697 -19.2182141,-15.441724 q -1.28523116,-1.035228 -1.91886917,-1.391943 -0.64568864,-0.374053 -1.29076003,-0.414257 -0.657122,-0.05754 -1.5111069,0.304593 l -0.7953419,-1.1443 9.5878518,-6.664001 0.7953419,1.1443 q -0.8292663,0.730661 -0.9855489,1.430698 -0.1562826,0.700037 0.3498441,1.428228 0.397671,0.572151 0.8873186,1.054659 0.477597,0.465171 1.6385107,1.432523 l 12.0852579,10.062578 z"
         id="path21413" />
      <path
         d="m 44.678932,-74.649374 2.646753,6.170723 -2.658456,1.140267 q -1.431055,-1.568791 -2.152028,-2.017718 -0.729296,-0.468331 -1.508389,-0.570682 -0.787415,-0.121755 -2.281584,0.519125 l -4.230244,1.814441 3.995099,9.314298 2.561432,-1.098652 q 0.853811,-0.366218 1.239053,-0.807153 0.376919,-0.460341 0.446025,-1.156249 0.08851,-0.704232 -0.128128,-2.012771 l 2.192741,-0.940513 3.379188,7.878344 -2.192741,0.940513 q -0.754408,-1.008954 -1.333983,-1.449605 -0.587898,-0.460055 -1.161814,-0.512563 -0.55451,-0.06083 -1.466535,0.330357 l -2.561432,1.098652 4.444547,10.362157 4.210839,-1.806118 q 0.679168,-0.291309 1.11159,-0.568683 0.424099,-0.296779 0.701236,-0.668371 0.277137,-0.371592 0.448879,-0.881776 0.191147,-0.518508 0.2603,-1.053613 0.08856,-0.54343 0.08,-1.366849 -0.0086,-0.823419 -0.183631,-2.195737 l 2.658456,-1.140268 2.669248,7.240887 -19.074906,8.18163 -0.549326,-1.280716 q 0.634746,-0.502003 0.950692,-0.890242 0.327028,-0.415966 0.354613,-0.887293 0.03867,-0.499055 -0.161135,-1.125573 -0.208125,-0.645922 -0.607635,-1.577352 l -7.174532,-16.726927 q -0.391187,-0.912025 -0.715741,-1.508009 -0.30515,-0.604307 -0.685065,-0.900848 -0.36051,-0.304865 -0.887293,-0.354613 -0.515701,-0.07748 -1.336314,0.04475 l -0.549326,-1.280716 z"
         id="path21415" />
      <path
         d="m 98.972321,-82.723136 q -1.085268,0.418104 -1.449861,0.833385 -0.366532,0.394256 -0.476588,1.040521 -0.09097,0.623301 0.0544,2.200199 l 1.676545,18.186891 q 0.11823,1.282544 0.314157,2.027825 0.193989,0.724257 0.60927,1.08885 0.43437,0.34163 1.66188,0.546532 l 0.12793,1.38767 -10.785987,0.994298 -0.127921,-1.38767 q 0.901855,-0.337585 1.241841,-0.559762 0.339987,-0.222177 0.50208,-0.533975 0.18118,-0.334762 0.209073,-0.952249 0.04698,-0.64045 -0.08482,-2.070171 l -0.949719,-10.3024 q -0.156995,-1.70305 -0.307121,-4.021648 -0.150126,-2.318599 -0.176208,-3.291578 l -0.441531,0.0407 q -0.174776,0.86427 -0.39354,1.711392 -0.199677,0.824159 -0.785732,2.977377 l -4.2354,15.69971 -3.700454,0.341124 -7.501018,-16.504951 q -0.659369,-1.402291 -1.190648,-2.795186 l -0.378455,0.03489 q 0.530056,3.449794 0.966152,8.180488 l 0.891573,9.671641 q 0.143427,1.555873 0.346812,2.152039 0.203385,0.596167 0.681742,0.954945 0.478357,0.358779 1.59687,0.531321 l 0.127921,1.387671 -7.947566,0.73264 -0.127921,-1.38767 q 0.758554,-0.281967 1.176827,-0.574973 0.439299,-0.294944 0.631813,-0.73677 0.192514,-0.441826 0.174481,-1.097487 0.003,-0.657599 -0.09004,-1.666814 L 69.13661,-76.071222 q -0.147304,-1.597923 -0.348751,-2.173064 -0.180421,-0.577079 -0.61479,-0.918709 -0.434368,-0.34163 -1.642796,-0.569495 l -0.127922,-1.387671 10.449578,-0.963286 7.415274,16.724895 4.716328,-17.843238 9.860869,-0.909017 z"
         id="path21417" />
      <path
         d="m 118.11212,-52.378102 q -6.12075,-1.035061 -8.5964,-5.136958 -2.45482,-4.098376 -1.24725,-11.239249 0.79213,-4.684246 2.83005,-7.744483 2.06226,-3.077536 5.24829,-4.316137 3.18604,-1.2386 7.18326,-0.562642 6.22484,1.052663 8.74213,5.161602 2.5208,4.088119 1.33084,11.124898 -0.6654,3.934766 -2.08105,6.607705 -1.39132,2.655641 -3.40476,4.178192 -2.01344,1.522552 -4.55195,1.971255 -2.5177,0.452223 -5.45316,-0.04418 z m -3.1282,-15.818761 q -1.06322,6.287299 -0.0853,9.621976 1.00224,3.317379 4.10426,3.841951 1.60305,0.271087 2.87161,-0.392373 1.27209,-0.68428 2.21964,-2.108696 0.97188,-1.441714 1.62245,-3.515951 0.67139,-2.070715 1.1009,-4.610618 0.7006,-4.142955 0.50616,-7.045344 -0.1701,-2.919687 -1.26311,-4.560689 -1.06866,-1.658301 -3.12973,-2.006842 -3.01874,-0.510489 -4.98624,2.13337 -1.94317,2.626562 -2.96063,8.643216 z"
         id="path21419" />
      <path
         d="m 170.06119,-66.005217 -0.53777,1.285607 q -0.88509,-0.0727 -1.28956,-0.03591 -0.385,0.04494 -0.74097,0.239345 -0.33649,0.202554 -0.70595,0.75751 -0.36132,0.535478 -0.87466,1.762649 l -9.07706,21.699491 -4.94764,-2.069636 -2.42623,-18.82126 q -0.48517,-3.819149 -0.58942,-5.922622 l -0.17531,-0.07333 q -1.55707,4.269444 -3.50448,8.924901 l -2.62372,6.272205 q -0.61111,1.460917 -0.7192,2.102321 -0.0886,0.649552 0.13482,1.154988 0.25105,0.494104 1.18884,1.20681 l -0.53778,1.285607 -7.36302,-3.080009 0.53778,-1.285607 q 0.8022,0.106693 1.30903,0.04406 0.52632,-0.05449 0.88407,-0.362583 0.38538,-0.319427 0.69641,-0.898828 0.31103,-0.579402 0.69399,-1.49491 l 7.04817,-16.849246 q 0.61112,-1.460917 0.70291,-2.063363 0.11943,-0.613777 -0.13481,-1.154988 -0.23477,-0.533062 -1.15307,-1.23762 l 0.53777,-1.285607 7.88896,3.30001 1.8844,14.863975 q 0.17021,1.398666 0.39592,3.75893 0.22572,2.360264 0.30731,4.408482 l 0.31166,0.13037 q 1.73315,-4.745086 4.03908,-10.257614 l 1.51556,-3.623075 q 0.52963,-1.266128 0.66854,-1.871757 0.1389,-0.605629 0.0469,-0.987442 -0.0726,-0.373665 -0.3417,-0.715121 -0.24966,-0.333308 -0.95052,-0.90113 l 0.53778,-1.285607 z"
         id="path21421" />
      <path
         d="m 184.63859,-28.304591 q -0.0743,1.509144 -0.0745,2.446778 0.0294,0.932883 0.1244,1.522481 0.095,0.589599 0.28421,1.012793 0.21867,0.418442 0.65509,0.968141 l -0.80368,1.112513 -9.27665,-6.701468 0.81605,-1.129629 q 0.64375,0.33481 0.98514,0.29491 0.35376,-0.05701 0.58868,-0.382211 0.19783,-0.27385 0.29772,-0.592405 0.12937,-0.323307 0.20933,-1.046968 0.08,-0.723662 0.1791,-2.735854 l 0.2993,-5.931022 q 0.0524,-1.082172 -0.0102,-1.752597 -0.0456,-0.658061 -0.28136,-1.088868 -0.2063,-0.435558 -0.82246,-0.880674 l -0.34231,-0.247287 -4.90864,6.79489 q -0.43275,0.599045 -0.76945,1.137242 -0.3367,0.538196 -0.46893,0.937578 -0.13223,0.399382 -0.10469,0.757893 0.0446,0.370874 0.26331,0.789317 0.23104,0.401327 0.64084,0.879702 l -0.81605,1.129629 -8.98568,-6.491275 0.81604,-1.129629 q 0.75692,0.286325 1.25236,0.357704 0.52491,0.06663 0.94336,-0.15204 0.44792,-0.22342 0.88256,-0.71691 0.44701,-0.510606 1.04049,-1.332154 l 10.65806,-14.753639 q 0.58112,-0.804433 0.92543,-1.389225 0.36143,-0.572428 0.42045,-1.050747 0.0761,-0.465955 -0.15204,-0.943358 -0.19869,-0.482153 -0.72544,-1.123154 l 0.81604,-1.129629 8.98569,6.491275 -0.81605,1.129629 q -0.85486,-0.331031 -1.35791,-0.355815 -0.48593,-0.01242 -0.87965,0.172018 -0.37659,0.196802 -0.79126,0.626581 -0.41466,0.429779 -1.11943,1.405368 l -4.4017,6.09315 0.35943,0.259651 q 0.78731,0.568759 1.37308,0.73144 0.58576,0.162681 1.38647,0.06388 0.81783,-0.08644 3.3788,-0.71091 2.59046,-0.629221 3.8372,-1.057 1.27622,-0.43253 1.90675,-0.836609 0.66,-0.408829 1.06802,-0.973644 0.43276,-0.599045 0.26927,-1.238101 -0.14637,-0.626691 -0.86998,-1.175473 l 0.81605,-1.129629 8.74606,6.318174 -0.84077,1.16386 q -0.73694,-0.350036 -1.37217,-0.444254 -0.63522,-0.09422 -1.62992,0.02073 -0.98234,0.09783 -2.66081,0.474209 l -9.28909,2.041538 z"
         id="path21423" />
      <path
         d="m 221.26998,-23.399869 -4.98872,4.493974 -1.93608,-2.149228 q 1.02398,-1.860237 1.21664,-2.687412 0.20835,-0.841307 0.0542,-1.611824 -0.13847,-0.784649 -1.22663,-1.99261 l -3.08078,-3.419939 -7.53014,6.783356 1.86542,2.070789 q 0.62181,0.690263 1.16336,0.912874 0.55724,0.208479 1.2383,0.04966 0.69519,-0.143135 1.86413,-0.769869 l 1.59691,1.77272 -6.36924,5.737589 -1.59692,-1.77272 q 0.71205,-1.039285 0.94244,-1.729937 0.24607,-0.704785 0.11085,-1.265008 -0.1211,-0.544535 -0.7853,-1.281861 l -1.86542,-2.070789 -8.37729,7.546484 3.06665,3.404251 q 0.49462,0.549073 0.89654,0.869052 0.4176,0.305847 0.85868,0.448464 0.44107,0.1426158 0.97938,0.1408005 0.55245,0.013872 1.08129,-0.09309 0.54298,-0.09127 1.31972,-0.364709 0.77674,-0.273435 2.01945,-0.88137 l 1.93608,2.149228 -5.99455,4.8601092 -13.89175,-15.4211032 1.0354,-0.932712 q 0.67976,0.439129 1.14909,0.613121 0.49916,0.175547 0.95424,0.04978 0.48489,-0.124206 1.01361,-0.515234 0.54441,-0.40516 1.29742,-1.083496 l 13.52288,-12.181778 q 0.73733,-0.664203 1.19694,-1.163491 0.47375,-0.483599 0.63205,-0.938805 0.17244,-0.439517 0.0498,-0.954233 -0.0928,-0.513159 -0.47297,-1.250616 l 1.03539,-0.932711 z"
         id="path21425" />
      <path
         d="m 219.02948,5.5618299 -4.96693,2.9664708 q -0.96076,0.5738064 -1.43585,0.9313319 -0.45696,0.346699 -0.67852,0.6757704 -0.22155,0.329071 -0.30186,0.647565 -0.0514,0.325796 0.002,0.785784 0.0823,0.46729 0.37063,1.155885 l -1.19641,0.714552 -5.97625,-10.0063806 1.19641,-0.7145513 q 0.57078,0.6674417 1.03002,0.9834099 0.47007,0.3340956 0.98067,0.3242683 0.51059,-0.00983 1.12315,-0.3018938 0.64152,-0.2847657 1.52976,-0.815266 l 4.96694,-2.96647077 7.43494,-11.10533073 q 0.94438,-1.4248 1.36231,-2.166279 0.49421,-0.86082 0.63646,-1.363865 0.15307,-0.484918 0.12839,-0.814489 -0.0247,-0.329571 -0.24096,-0.815238 l 1.19642,-0.714551 5.77054,9.6619577 -1.19642,0.7145514 q -1.01491,-1.2875522 -2.21133,-0.5730008 -0.47131,0.2814899 -0.99399,0.8887752 -0.51184,0.6254128 -1.29635,1.782575 l -4.98625,7.134325 8.63404,-0.656006 q 1.28933,-0.106017 2.05019,-0.3144972 0.78981,-0.2011794 1.4424,-0.5909346 0.65259,-0.38975534 0.78778,-0.98696356 0.16415,-0.58990727 -0.20018,-1.28227784 l 1.19642,-0.7145514 4.34144,7.2691278 -1.19642,0.7145513 q -0.40108,-0.4244833 -0.79536,-0.6316864 -0.36533,-0.1999022 -1.00962,-0.3315693 -0.62616,-0.1424938 -1.75586,-0.1809972 -1.12971,-0.038503 -2.8463,0.052162 z"
         id="path21427" />
      <path
         d="m 222.50732,21.326012 q -2.17326,1.367054 -2.91658,2.947914 -0.71619,1.593334 0.11185,3.830975 0.43233,1.168326 1.17278,1.952472 0.74045,0.784145 1.81692,1.016185 1.1036,0.244513 2.43034,-0.246445 1.22773,-0.454319 1.95029,-1.239516 0.74236,-0.792525 1.18053,-2.102871 0.43817,-1.310346 0.68225,-3.449416 0.20072,-1.830348 0.57076,-3.385647 0.37004,-1.555299 1.0304,-2.812782 0.68749,-1.245008 1.69243,-2.179726 1.01226,-0.914915 2.49742,-1.464495 2.43566,-0.901312 4.58564,-0.323567 2.14997,0.577745 3.86395,2.53257 1.74112,1.967299 2.85493,4.977224 0.65217,1.762389 1.0477,3.439639 0.41532,1.669923 0.70216,3.90521 l -5.74262,2.125043 -1.0039,-2.712892 q 1.42514,-0.955131 2.11621,-1.886271 0.71819,-0.918666 0.83142,-1.95117 0.11323,-1.032504 -0.37773,-2.359246 -0.41768,-1.128722 -1.14347,-1.873263 -0.7258,-0.744542 -1.7084,-0.966288 -0.96281,-0.229073 -2.07173,0.18128 -1.14852,0.425008 -1.8388,1.175748 -0.66315,0.763214 -1.08667,2.113164 -0.40372,1.342622 -0.69332,3.72368 -0.36603,2.904637 -1.08082,4.745106 -0.68766,1.852943 -1.8914,3.041338 -1.17661,1.20087 -3.07762,1.904332 -2.43566,0.901312 -4.65533,0.439414 -2.19988,-0.469225 -3.96891,-2.268599 -1.74922,-1.806701 -2.79709,-4.638406 -0.74743,-2.019817 -1.32318,-4.305787 -0.58823,-2.25884 -0.86337,-4.340857 l 6.09906,-2.256942 z"
         id="path21429" />
    </g>
  </g>
</svg>
