<?xml version="1.0" encoding="UTF-8" standalone="no"?>
<!-- Created with Inkscape (http://www.inkscape.org/) -->

<svg
   width="210mm"
   height="297mm"
   viewBox="0 0 210 297"
   version="1.1"
   id="svg8"
   inkscape:version="1.4 (86a8ad7, 2024-10-11)"
   sodipodi:docname="Superman+Logo.svg"
   xmlns:inkscape="http://www.inkscape.org/namespaces/inkscape"
   xmlns:sodipodi="http://sodipodi.sourceforge.net/DTD/sodipodi-0.dtd"
   xmlns="http://www.w3.org/2000/svg"
   xmlns:svg="http://www.w3.org/2000/svg"
   xmlns:rdf="http://www.w3.org/1999/02/22-rdf-syntax-ns#"
   xmlns:cc="http://creativecommons.org/ns#"
   xmlns:dc="http://purl.org/dc/elements/1.1/">
  <defs
     id="defs2" />
  <sodipodi:namedview
     id="base"
     pagecolor="#ffffff"
     bordercolor="#666666"
     borderopacity="1.0"
     inkscape:pageopacity="0.0"
     inkscape:pageshadow="2"
     inkscape:zoom="0.35"
     inkscape:cx="400"
     inkscape:cy="558.57143"
     inkscape:document-units="mm"
     inkscape:current-layer="layer1"
     inkscape:pagecheckerboard="0"
     showgrid="false"
     inkscape:snap-global="false"
     inkscape:showpageshadow="2"
     inkscape:deskcolor="#d1d1d1"
     inkscape:window-width="2048"
     inkscape:window-height="1089"
     inkscape:window-x="-8"
     inkscape:window-y="-8"
     inkscape:window-maximized="1" />
  <metadata
     id="metadata5">
    <rdf:RDF>
      <cc:Work
         rdf:about="">
        <dc:format>image/svg+xml</dc:format>
        <dc:type
           rdf:resource="http://purl.org/dc/dcmitype/StillImage" />
      </cc:Work>
    </rdf:RDF>
  </metadata>
  <g
     inkscape:label="Layer 1"
     inkscape:groupmode="layer"
     id="layer1">
    <path
       id="path4841"
       style="fill:#ffff00;stroke:#ff0000;stroke-width:16;stop-color:#000000"
       inkscape:transform-center-x="-1.7238095e-06"
       inkscape:transform-center-y="12.19683"
       d="M 106.58931,255.48286 -14.886101,118.08883 31.513374,63.732264 l 150.151936,-4e-6 46.39953,54.35657 z"
       sodipodi:nodetypes="cccccc" />
    <path
       style="fill:#ff0000;stroke:none;stroke-width:0.264583px;stroke-linecap:butt;stroke-linejoin:miter;stroke-opacity:1"
       d="M 24.190556,161.77384 C 4.515849,128.16285 6.0477157,81.642861 70.303619,65.76786 c 53.672601,-2.267857 49.892851,0.755953 49.892851,0.755953 0,0 23.43452,14.363096 25.70238,29.48214 C 151.94647,78.619051 159.506,65.011908 159.506,65.011908 h 21.16668 v 53.672632 h -43.84526 c 0,0 -9.82739,-35.529774 -43.089283,-34.01787 -33.261892,1.511905 -46.613532,15.267863 -43.845216,33.26191 4.535717,29.48216 126.999989,0 132.291659,43.08931 -20.41072,32.50596 -47.62502,58.20834 -47.62502,58.20834 0,0 -26.45833,16.63095 -52.916657,0.75595 -26.458315,-15.875 -21.166658,-24.19048 -21.166658,-24.19048 0,0 21.922618,-12.09523 40.065455,3.77977 -0.755946,9.07143 40.71958,-0.11428 38.55357,-10.58334 -4.53571,-21.92262 -96.761862,3.77977 -114.904714,-27.21429 z"
       id="path5293"
       sodipodi:nodetypes="scccccccssccsccss" />
  </g>
</svg>
